<mxfile host="drawio-plugin" modified="2022-04-19T14:11:33.604Z" agent="5.0 (X11; Linux x86_64) AppleWebKit/537.36 (KHTML, like Gecko) Chrome/89.0.4389.114 Safari/537.36" etag="QrlGw8sepv8kpFqjQ3cD" version="15.5.4" type="embed"><diagram id="23iRSUPoRavnBvh4doch" name="Page-1"><mxGraphModel dx="987" dy="496" grid="1" gridSize="10" guides="1" tooltips="1" connect="1" arrows="1" fold="1" page="1" pageScale="1" pageWidth="827" pageHeight="1169" math="0" shadow="0"><root><mxCell id="0"/><mxCell id="1" parent="0"/><mxCell id="6" style="edgeStyle=orthogonalEdgeStyle;rounded=0;orthogonalLoop=1;jettySize=auto;html=1;" parent="1" source="2" target="4" edge="1"><mxGeometry relative="1" as="geometry"><Array as="points"><mxPoint x="250" y="250"/><mxPoint x="250" y="250"/></Array></mxGeometry></mxCell><mxCell id="7" value="genrate user token (as AS)" style="edgeLabel;html=1;align=center;verticalAlign=middle;resizable=0;points=[];" parent="6" vertex="1" connectable="0"><mxGeometry x="0.2467" y="-3" relative="1" as="geometry"><mxPoint x="-13" y="-13" as="offset"/></mxGeometry></mxCell><mxCell id="9" style="edgeStyle=orthogonalEdgeStyle;rounded=0;orthogonalLoop=1;jettySize=auto;html=1;" parent="1" source="2" target="4" edge="1"><mxGeometry relative="1" as="geometry"><Array as="points"><mxPoint x="280" y="310"/><mxPoint x="280" y="310"/></Array></mxGeometry></mxCell><mxCell id="10" value="Fetch OpenID Token" style="edgeLabel;html=1;align=center;verticalAlign=middle;resizable=0;points=[];" parent="9" vertex="1" connectable="0"><mxGeometry x="-0.2333" y="4" relative="1" as="geometry"><mxPoint x="13" y="-6" as="offset"/></mxGeometry></mxCell><mxCell id="12" style="edgeStyle=orthogonalEdgeStyle;rounded=0;orthogonalLoop=1;jettySize=auto;html=1;" parent="1" source="2" target="5" edge="1"><mxGeometry relative="1" as="geometry"><Array as="points"><mxPoint x="380" y="370"/><mxPoint x="380" y="370"/></Array></mxGeometry></mxCell><mxCell id="13" value="Send OpenID Token for Auth" style="edgeLabel;html=1;align=center;verticalAlign=middle;resizable=0;points=[];" parent="12" vertex="1" connectable="0"><mxGeometry x="-0.7387" y="-2" relative="1" as="geometry"><mxPoint x="50" y="8" as="offset"/></mxGeometry></mxCell><mxCell id="2" value="ICS" style="shape=umlLifeline;perimeter=lifelinePerimeter;whiteSpace=wrap;html=1;container=1;collapsible=0;recursiveResize=0;outlineConnect=0;" parent="1" vertex="1"><mxGeometry x="120" y="160" width="100" height="300" as="geometry"/></mxCell><mxCell id="3" value="Keycloak" style="shape=umlLifeline;perimeter=lifelinePerimeter;whiteSpace=wrap;html=1;container=1;collapsible=0;recursiveResize=0;outlineConnect=0;" parent="1" vertex="1"><mxGeometry x="640" y="160" width="100" height="300" as="geometry"/></mxCell><mxCell id="8" style="edgeStyle=orthogonalEdgeStyle;rounded=0;orthogonalLoop=1;jettySize=auto;html=1;" parent="1" source="4" target="2" edge="1"><mxGeometry relative="1" as="geometry"><Array as="points"><mxPoint x="240" y="270"/><mxPoint x="240" y="270"/></Array></mxGeometry></mxCell><mxCell id="11" style="edgeStyle=orthogonalEdgeStyle;rounded=0;orthogonalLoop=1;jettySize=auto;html=1;" parent="1" source="4" target="2" edge="1"><mxGeometry relative="1" as="geometry"><Array as="points"><mxPoint x="230" y="330"/><mxPoint x="230" y="330"/></Array></mxGeometry></mxCell><mxCell id="18" style="edgeStyle=orthogonalEdgeStyle;rounded=0;orthogonalLoop=1;jettySize=auto;html=1;" parent="1" source="4" target="5" edge="1"><mxGeometry relative="1" as="geometry"><Array as="points"><mxPoint x="400" y="460"/><mxPoint x="400" y="460"/></Array></mxGeometry></mxCell><mxCell id="19" value="receive username" style="edgeLabel;html=1;align=center;verticalAlign=middle;resizable=0;points=[];" parent="18" vertex="1" connectable="0"><mxGeometry x="-0.1667" y="-2" relative="1" as="geometry"><mxPoint x="1" as="offset"/></mxGeometry></mxCell><mxCell id="4" value="Matrix" style="shape=umlLifeline;perimeter=lifelinePerimeter;whiteSpace=wrap;html=1;container=1;collapsible=0;recursiveResize=0;outlineConnect=0;" parent="1" vertex="1"><mxGeometry x="270" y="160" width="100" height="400" as="geometry"/></mxCell><mxCell id="16" style="edgeStyle=orthogonalEdgeStyle;rounded=0;orthogonalLoop=1;jettySize=auto;html=1;" parent="1" source="5" target="4" edge="1"><mxGeometry relative="1" as="geometry"><mxPoint x="330" y="410" as="targetPoint"/><Array as="points"><mxPoint x="400" y="430"/><mxPoint x="400" y="430"/></Array></mxGeometry></mxCell><mxCell id="17" value="Send OpenID Token to userinfo" style="edgeLabel;html=1;align=center;verticalAlign=middle;resizable=0;points=[];" parent="16" vertex="1" connectable="0"><mxGeometry x="-0.3062" y="-2" relative="1" as="geometry"><mxPoint x="-26" y="-8" as="offset"/></mxGeometry></mxCell><mxCell id="5" value="Nordeck" style="shape=umlLifeline;perimeter=lifelinePerimeter;whiteSpace=wrap;html=1;container=1;collapsible=0;recursiveResize=0;outlineConnect=0;" parent="1" vertex="1"><mxGeometry x="480" y="160" width="90" height="390" as="geometry"/></mxCell><mxCell id="21" value="" style="endArrow=classic;startArrow=classic;html=1;rounded=0;" parent="1" source="4" target="5" edge="1"><mxGeometry width="50" height="50" relative="1" as="geometry"><mxPoint x="390" y="400" as="sourcePoint"/><mxPoint x="440" y="350" as="targetPoint"/><Array as="points"><mxPoint x="400" y="500"/></Array></mxGeometry></mxCell><mxCell id="22" value="do stuff" style="edgeLabel;html=1;align=center;verticalAlign=middle;resizable=0;points=[];" parent="21" vertex="1" connectable="0"><mxGeometry x="0.0195" y="-1" relative="1" as="geometry"><mxPoint x="1" as="offset"/></mxGeometry></mxCell><mxCell id="41" style="edgeStyle=orthogonalEdgeStyle;rounded=0;orthogonalLoop=1;jettySize=auto;html=1;" parent="1" source="29" target="30" edge="1"><mxGeometry relative="1" as="geometry"><Array as="points"><mxPoint x="300" y="730"/><mxPoint x="300" y="730"/></Array></mxGeometry></mxCell><mxCell id="42" value="get token for audience mav" style="edgeLabel;html=1;align=center;verticalAlign=middle;resizable=0;points=[];" parent="41" vertex="1" connectable="0"><mxGeometry x="-0.1865" y="-3" relative="1" as="geometry"><mxPoint y="-23" as="offset"/></mxGeometry></mxCell><mxCell id="44" style="edgeStyle=orthogonalEdgeStyle;rounded=0;orthogonalLoop=1;jettySize=auto;html=1;" parent="1" source="29" target="38" edge="1"><mxGeometry relative="1" as="geometry"><Array as="points"><mxPoint x="230" y="815"/><mxPoint x="230" y="815"/></Array></mxGeometry></mxCell><mxCell id="45" value="use token for auth" style="edgeLabel;html=1;align=center;verticalAlign=middle;resizable=0;points=[];" parent="44" vertex="1" connectable="0"><mxGeometry x="-0.2038" y="-2" relative="1" as="geometry"><mxPoint x="16" y="-17" as="offset"/></mxGeometry></mxCell><mxCell id="29" value="ICS" style="shape=umlLifeline;perimeter=lifelinePerimeter;whiteSpace=wrap;html=1;container=1;collapsible=0;recursiveResize=0;outlineConnect=0;" parent="1" vertex="1"><mxGeometry x="120" y="620" width="100" height="300" as="geometry"/></mxCell><mxCell id="43" style="edgeStyle=orthogonalEdgeStyle;rounded=0;orthogonalLoop=1;jettySize=auto;html=1;" parent="1" source="30" target="29" edge="1"><mxGeometry relative="1" as="geometry"><Array as="points"><mxPoint x="370" y="750"/><mxPoint x="370" y="750"/></Array></mxGeometry></mxCell><mxCell id="30" value="Keycloak" style="shape=umlLifeline;perimeter=lifelinePerimeter;whiteSpace=wrap;html=1;container=1;collapsible=0;recursiveResize=0;outlineConnect=0;" parent="1" vertex="1"><mxGeometry x="640" y="620" width="100" height="300" as="geometry"/></mxCell><mxCell id="38" value="Nordeck" style="shape=umlLifeline;perimeter=lifelinePerimeter;whiteSpace=wrap;html=1;container=1;collapsible=0;recursiveResize=0;outlineConnect=0;" parent="1" vertex="1"><mxGeometry x="390" y="620" width="90" height="390" as="geometry"/></mxCell></root></mxGraphModel></diagram></mxfile>